<?xml version="1.0" encoding="UTF-8" standalone="no"?>
<svg
   xmlns:dc="http://purl.org/dc/elements/1.1/"
   xmlns:cc="http://creativecommons.org/ns#"
   xmlns:rdf="http://www.w3.org/1999/02/22-rdf-syntax-ns#"
   xmlns:svg="http://www.w3.org/2000/svg"
   xmlns="http://www.w3.org/2000/svg"
   xmlns:sodipodi="http://sodipodi.sourceforge.net/DTD/sodipodi-0.dtd"
   xmlns:inkscape="http://www.inkscape.org/namespaces/inkscape"
   width="195.33"
   height="126.32"
   version="1.1"
   viewBox="0 0 51.682 33.423"
   id="svg16"
   sodipodi:docname="balloon_error_en.svg"
   inkscape:version="1.0.2 (e86c870879, 2021-01-15)">
  <defs
     id="defs20" />
  <sodipodi:namedview
     pagecolor="#ffffff"
     bordercolor="#666666"
     borderopacity="1"
     objecttolerance="10"
     gridtolerance="10"
     guidetolerance="10"
     inkscape:pageopacity="0"
     inkscape:pageshadow="2"
     inkscape:window-width="1920"
     inkscape:window-height="1023"
     id="namedview18"
     showgrid="false"
     inkscape:zoom="5.660228"
     inkscape:cx="97.665001"
     inkscape:cy="63.16"
     inkscape:window-x="1920"
     inkscape:window-y="28"
     inkscape:window-maximized="1"
     inkscape:current-layer="svg16" />
  <metadata
     id="metadata2">
    <rdf:RDF>
      <cc:Work
         rdf:about="">
        <dc:format>image/svg+xml</dc:format>
        <dc:type
           rdf:resource="http://purl.org/dc/dcmitype/StillImage" />
        <dc:title></dc:title>
        <dc:creator>
          <cc:Agent>
            <dc:title>Sergei Solodovnikov</dc:title>
          </cc:Agent>
        </dc:creator>
        <dc:date>2021</dc:date>
        <dc:subject>
          <rdf:Bag>
            <rdf:li>seeneva</rdf:li>
          </rdf:Bag>
        </dc:subject>
      </cc:Work>
    </rdf:RDF>
  </metadata>
  <path
     id="bubble"
     d="m14.544 3.73 4.5805 1.7834 2.0735-4.2784 2.4972 3.0366 4.6695-4.1486 0.52047 6.1262 3.6103-1.8359 0.84194 2.248 6.3038-3.54-2.0474 5.6377 4.5732-7e-3 -2.4399 2.577 9.6524-0.32444-6.0543 4.1517 3.3726 1.557-2.6284 1.6332 7.4961 3.4058-8.997 1.8035 2.494 2.1815-4.8885 0.71609 3.4793 3.933-8.7154-1.1535-0.08917 2.9286-4.4361-2.9992-3.4034 4.1496-2.4359-4.8298-4.9645 3.262-1.4077-4.0585-7.609 5.3321 0.04097-5.9066-7.8832 2.2768 5.556-4.4551-6.0232-0.59982 5.1159-3.0874-7.2811-1.8782 7.2426-2.7349-4.725-2.2126 5.792-0.45295-3.0912-4.9157 6.795 0.61383-4.4946-5.23 6.9361 2.1902z"
     fill="#03a9f4"
     stroke="#000"
     stroke-linecap="round"
     stroke-linejoin="round"
     stroke-width=".26458"
     style="paint-order:normal" />
  <g
     id="text"
     transform="translate(-58.673,-131.31)"
     fill="#c54615"
     stroke="#000"
     stroke-width=".47625">
    <path
       d="m73.97 144.26c0.10053 0 0.18095 0.03 0.24127 0.0901 0.06031 0.0601 0.09047 0.1352 0.09047 0.22533l-0.04523 1.7876c-0.02011 0.19028-0.11561 0.29043-0.28651 0.30044l-4.1468 0.43565-0.10556 1.2468 3.1063-0.16525c0.08891-2e-4 0.28689-0.0158 0.37698 0.30044v1.5623c0 0.17025-0.08545 0.2704-0.25635 0.30044l-3.3024 0.43565-0.07539 1.2468 4.0262-0.12019c0.09047 0 0.16587 0.03 0.22619 0.0901 0.06031 0.0601 0.09047 0.13019 0.09047 0.21031v1.8928c0 0.19027-0.0955 0.29042-0.28651 0.30043l-6.3484 0.33049c-0.09047 0-0.16587-0.0251-0.22619-0.0751-0.06031-0.0601-0.09047-0.14021-0.09047-0.24036 0.02011-1.4822 0.06534-3.0245 0.13571-4.6268 0.07037-1.4722 0.19603-3.1296 0.37698-4.9724 0.03016-0.18027 0.13069-0.2704 0.30159-0.2704z"
       id="path5" />
    <path
       d="m101.58 152.04c0.0268 0.0355 0.0401 0.0798 0.0401 0.1331 0 0.0798-0.0446 0.15087-0.13362 0.21299l-1.4698 0.95845c-0.05346 0.0443-0.12472 0.0577-0.2138 0.04-0.08908-0.0266-0.14699-0.0755-0.17371-0.14644-0.24102-0.47856-0.4417-0.99014-0.70821-1.451-0.26128-0.47186-0.52366-0.91484-0.80174-1.3711l-0.74829 0.19968-0.04006 2.4227c0 0.17748-0.08908 0.26623-0.26725 0.26623h-1.6436c-0.08017 0-0.14253-0.0266-0.18706-0.0798-0.05345-0.0533-0.08018-0.1198-0.08018-0.19967l0.54786-8.24c9e-3 -0.14199 0.08463-0.22631 0.22716-0.25292l2.0177-0.25294h0.01337l0.37414-0.04c1.1031-0.10339 2.418-0.0626 3.0065 0.86524 0.49055 0.95408 0.47862 1.9467 0.1737 2.8753-0.28876 0.71236-0.68106 1.1494-1.2561 1.5841zm-4.0889-3.674c0.44541-0.0621 0.81956-0.16419 1.1224-0.30617 0.31179-0.14199 0.55231-0.37717 0.72156-0.70553 0.1573-0.31815 0.2548-0.62606 0.16035-0.94512-0.268-0.27563-0.54558-0.23075-0.86855-0.17301l-0.93536 0.21299z"
       id="path7" />
    <path
       d="m94.929 152.63c-0.69365 0.93137-1.6085 1.3971-2.7444 1.3971-2.2804-0.23805-3.1163-1.7513-3.2722-3.9658-0.02922-0.77352-0.02796-1.2082 0.12062-1.9078 0.32169-2.043 1.0254-3.4501 2.1111-4.2212 0.52275-0.35052 1.0857-0.52577 1.6889-0.52577 0.64339 0 1.2063 0.15021 1.6889 0.45066 0.48254 0.30044 0.84444 0.69603 1.0857 1.1868 0.37195 0.80119 0.55793 1.7226 0.55793 2.7641-9e-3 1.6041-0.485 3.7212-1.2365 4.8221zm-1.2968-5.5281c-0.04799-0.48505-0.03595-0.85136-0.22623-1.2769-0.10053-0.24035-0.25133-0.36054-0.45238-0.36054-0.06032 0-0.10556 5e-3 -0.13572 0.015-0.21111 0.0601-0.38704 0.22533-0.52777 0.49574-0.14074 0.26038-0.25132 0.5408-0.33174 0.84124-0.25133 0.8713-0.37698 1.9779-0.37698 3.3199 0 0.77114 0.14576 1.2468 0.4373 1.4271 0.11367 0.0574 0.23894 0.0668 0.34682 0.0751 0.35185 0 0.61826-0.2654 0.7992-0.79618 0.41496-1.2476 0.48952-2.4607 0.4675-3.7405z"
       id="path9" />
    <path
       d="m90.479 152.86c0.0346 0.046 0.05193 0.10343 0.05193 0.17239 0 0.10344-0.05769 0.19538-0.17304 0.27583l-1.9035 1.2412c-0.06922 0.0574-0.16152 0.0747-0.27688 0.0517-0.11537-0.0345-0.19036-0.0977-0.22496-0.18964-0.31212-0.61977-0.57203-1.2823-0.91716-1.8791-0.33838-0.61107-0.67818-1.1848-1.0383-1.7757l-0.96908 0.25859-0.05191 3.1376c0 0.22985-0.11536 0.34478-0.3461 0.34478h-2.1285c-0.10383 0-0.18458-0.0345-0.24227-0.10343-0.06922-0.069-0.10383-0.15516-0.10383-0.25859l0.7095-10.671c0.01153-0.18389 0.1096-0.29308 0.29418-0.32755l2.613-0.32756h0.01734c1.585-0.13613 3.5035-0.31025 4.3782 1.0688 0.65366 1.2168 0.61466 2.5368 0.22496 3.7237-0.36915 0.91523-0.87882 1.5014-1.6267 2.0515zm-5.2953-4.7581c0.57683-0.0805 1.0614-0.21262 1.4536-0.39651 0.40379-0.18387 0.71528-0.48844 0.93447-0.91369 0.20371-0.41203 0.32998-0.81078 0.20766-1.224-0.28227-0.37694-0.70462-0.29514-1.1248-0.22408l-1.2113 0.27582z"
       id="path11" />
    <path
       d="m83.178 153.94c0.04063 0.054 0.06099 0.12149 0.06099 0.2025 0 0.12151-0.06776 0.22952-0.20327 0.32402l-2.2361 1.4581c-0.08132 0.0675-0.18973 0.0878-0.32525 0.0608-0.13552-0.0405-0.22361-0.11476-0.26426-0.22277-0.36666-0.72804-0.67196-1.5063-1.0774-2.2074-0.3975-0.71784-0.79665-1.3917-1.2197-2.0859l-1.1384 0.30377-0.06098 3.6857c0 0.27-0.13552 0.40501-0.40656 0.40501h-2.5004c-0.12197 0-0.21683-0.0405-0.28459-0.1215-0.08132-0.081-0.12197-0.18225-0.12197-0.30377l0.83346-12.536c0.01355-0.21602 0.12875-0.34427 0.34558-0.38477 1.0301-0.12625 2.0594-0.26333 3.0899-0.38478 1.8618-0.16027 4.1157-0.3641 5.143 1.2556 0.76786 1.4293 0.72205 2.98 0.26427 4.3743-0.4434 1.0548-1.0154 1.7911-1.9109 2.4099zm-6.2204-5.5893c0.6776-0.0945 1.2468-0.24977 1.7076-0.46577 0.47432-0.21601 0.84023-0.57379 1.0977-1.0733 0.2393-0.48402 0.38763-0.95244 0.24394-1.4378-0.32799-0.43295-0.83228-0.36235-1.3213-0.26334l-1.423 0.324z"
       id="path13" />
  </g>
</svg>
