<?xml version="1.0" encoding="UTF-8"?>
<svg width="195.33" height="126.32" version="1.1" viewBox="0 0 51.682 33.423" xmlns="http://www.w3.org/2000/svg" xmlns:cc="http://creativecommons.org/ns#" xmlns:dc="http://purl.org/dc/elements/1.1/" xmlns:rdf="http://www.w3.org/1999/02/22-rdf-syntax-ns#">
 <metadata>
  <rdf:RDF>
   <cc:Work rdf:about="">
    <dc:format>image/svg+xml</dc:format>
    <dc:type rdf:resource="http://purl.org/dc/dcmitype/StillImage"/>
    <dc:title/>
   </cc:Work>
  </rdf:RDF>
 </metadata>
 <path id="bubble" d="m14.544 3.73 4.5805 1.7834 2.0735-4.2784 2.4972 3.0366 4.6695-4.1486 0.52047 6.1262 3.6103-1.8359 0.84194 2.248 6.3038-3.54-2.0474 5.6377 4.5732-7e-3 -2.4399 2.577 9.6524-0.32444-6.0543 4.1517 3.3726 1.557-2.6284 1.6332 7.4961 3.4058-8.997 1.8035 2.494 2.1815-4.8885 0.71609 3.4793 3.933-8.7154-1.1535-0.08917 2.9286-4.4361-2.9992-3.4034 4.1496-2.4359-4.8298-4.9645 3.262-1.4077-4.0585-7.609 5.3321 0.04097-5.9066-7.8832 2.2768 5.556-4.4551-6.0232-0.59982 5.1159-3.0874-7.2811-1.8782 7.2426-2.7349-4.725-2.2126 5.792-0.45295-3.0912-4.9157 6.795 0.61383-4.4946-5.23 6.9361 2.1902z" fill="#03a9f4" stroke="#000" stroke-linecap="round" stroke-linejoin="round" stroke-width=".26458" style="paint-order:normal"/>
 <g id="text" fill="#c54615" stroke="#000" stroke-linecap="round" stroke-linejoin="round" stroke-width=".37043">
  <path d="m43.899 22.539c0 0.06956-0.02609 0.13042-0.07825 0.18258-0.04348 0.05216-0.10433 0.07825-0.18258 0.07825h-1.9693c-0.1565 0-0.24345-0.07825-0.26084-0.23475l-0.13042-1.5911-1.9693 0.39125-0.28692 1.1998c-0.03478 0.13042-0.12173 0.19562-0.26084 0.19562l-1.9301-0.03913c-0.08695 0-0.15215-0.03043-0.19562-0.09128-0.05217-0.06956-0.06956-0.15216-0.05217-0.24779 0.725-2.8605 1.8008-5.6441 2.9213-8.2684 0.3007-0.2582 0.68094-0.25146 1.0694-0.313 0.26796-0.03911 0.47974-0.02646 0.75642-0.01304 0.41733 0.03478 0.75208 0.33473 1.0042 0.89987 0.27015 0.76949 0.43785 1.5789 0.58688 2.3345l0.97812 5.4644zm-3.0126-4.1211c-0.05562-0.48884-0.15475-0.97484-0.26084-1.4477l-0.63904 2.0997 0.97812-0.02609z"/>
  <path d="m38.376 15.236c0.0562 0.07226 0.08429 0.13247 0.08429 0.18064 0 0.0562-0.02408 0.10838-0.07226 0.15655l-2.2641 2.6133 2.0472 2.8782c0.04015 0.0562 0.06022 0.10838 0.06022 0.15655 0 0.04817-0.03211 0.10437-0.09634 0.1686l-1.2525 1.0959c-0.07226 0.0562-0.13649 0.07226-0.19269 0.04817-0.07226 0-0.12846-0.03612-0.1686-0.10838l-0.63827-0.9755c-0.45218-0.7431-0.99243-1.4497-1.4933-2.0472v2.8903c0 0.16057-0.07627 0.24487-0.22881 0.2529l-1.5897 0.03612c-0.07226 0-0.13247-0.02409-0.18064-0.07226-0.04817-0.04817-0.07226-0.10838-0.07226-0.18064 0.03648-2.7451 0.19304-5.2001 0.37332-7.876 8e-3 -0.15254 0.09233-0.22881 0.2529-0.22881h1.5054c0.07226 0 0.13247 0.0281 0.18064 0.0843 0.04817 0.04817 0.07226 0.10838 0.07226 0.18064l-0.18064 2.228 2.4447-2.529c0.0562-0.0562 0.11642-0.0843 0.18064-0.0843 0.06423 0 0.12043 0.02409 0.1686 0.07226z"/>
  <path d="m14.248 21.743c-0.71149 0.95529-1.6499 1.433-2.815 1.433-2.3391-0.24417-3.1964-1.7964-3.3564-4.0678-0.029971-0.79342-0.028679-1.2393 0.12372-1.9569 0.32996-2.0955 1.0517-3.5388 2.1654-4.3297 0.53619-0.35954 1.1137-0.53929 1.7323-0.53929 0.65994 0 1.2373 0.15407 1.7323 0.46225 0.49495 0.30817 0.86615 0.71393 1.1137 1.2173 0.94585 2.2285 0.41458 5.9948-0.69607 7.7811zm-1.3302-5.6703c-0.04922-0.49752-0.03687-0.87325-0.23205-1.3097-0.10312-0.24653-0.2578-0.36981-0.46402-0.36981-0.06188 0-0.10828 0.0051-0.13921 0.01539-0.21654 0.06164-0.39699 0.23113-0.54134 0.50849-0.14436 0.26708-0.25779 0.55471-0.34027 0.86287-0.2578 0.89371-0.38667 2.0287-0.38667 3.4053 0 0.79097 0.14951 1.2788 0.44855 1.4638 0.11659 0.05888 0.24509 0.06852 0.35574 0.07703 0.3609 0 0.63416-0.27223 0.81976-0.81665 0.42563-1.2797 0.50211-2.524 0.47953-3.8367z" style="paint-order:normal"/>
  <path d="m20.094 16.776c0.05534 0 0.09684 0.01659 0.12451 0.0498 0.03321 0.03321 0.0498 0.07748 0.0498 0.13281l-0.34863 5.3124c-0.01106 0.10514-0.0664 0.15771-0.16601 0.15771h-0.0664c-1.9065 0.0496-3.8611 0.35022-5.6693 0.39012-0.05534 0-0.09961-0.01659-0.13281-0.0498-0.0332-0.02767-0.0498-0.06917-0.0498-0.12451 0.07194-1.3945 0.12728-2.385 0.16601-2.9716 0.03873-0.58658 0.1079-1.4803 0.20751-2.6811 0.01107-0.10514 0.0664-0.15771 0.16601-0.15771l1.0542-0.0249c0.0498 0 0.08854 0.01937 0.11621 0.05811 0.03321 0.03321 0.0498 0.07471 0.0498 0.12451l-0.24901 4.3164 0.85497-0.0249 0.11621-2.1166 0.13281-2.1996c0-0.10514 0.05811-0.15771 0.17432-0.15771l1.0708 0.0249c0.0498 0 0.08854 0.01937 0.11621 0.05811 0.03321 0.0332 0.0498 0.07471 0.0498 0.12451-0.03321 0.4261-0.07471 1.1179-0.12451 2.0751-0.0498 0.95735-0.07471 1.6767-0.07471 2.1582l0.83836-0.0249 0.20751-4.2582c0-0.11067 0.05534-0.16601 0.16601-0.16601z"/>
  <path d="m25.758 13.997c0.27931 0.27931 0.4146 0.611 0.40588 0.99505-0.10047 2.6099-0.22113 5.21-0.22258 7.5546 0 0.17457-0.08729 0.26186-0.26186 0.26186h-1.9377c-0.07856 0-0.14402-0.02182-0.19639-0.06547-0.04364-0.05238-0.06547-0.11784-0.06547-0.19639 0.1019-1.351 0.20549-2.9868 0.30113-4.229-0.05238 0.11347-0.27932 0.59791-0.68083 1.4533-0.46262 0.98635-0.89031 1.9421-1.2831 2.8673-0.03491 0.09602-0.06547 0.15711-0.09165 0.1833-0.02618 0.01744-0.07856 0.02617-0.15711 0.02617l-1.9377 0.03927c-0.08729 0-0.15275-0.02617-0.19639-0.07856-0.05238-0.05238-0.07856-0.1222-0.07856-0.20948l0.57608-8.5628c0.01744-0.16584 0.10474-0.24876 0.26186-0.24876l1.5711-0.03928c0.07856 0 0.14402 0.03055 0.19639 0.09165 0.05238 0.05238 0.07856 0.11347 0.07856 0.1833l-0.24876 4.229c0.65465-1.4577 1.3485-2.863 2.0818-4.2159 0.05238-0.10474 0.12656-0.18766 0.22258-0.24876 0.25545-0.13563 0.5191-0.09165 0.81176-0.09165 0.32164 0.03694 0.65369 0.11056 0.85104 0.30114z"/>
  <path d="m28.342 16.309c0.25946-0.032 0.51353-0.048 0.76218-0.048 0.85407 0 1.5892 0.16003 2.2054 0.48009 0.61623 0.30938 1.0811 0.73614 1.3946 1.2802 0.32433 0.5441 0.4865 1.1469 0.4865 1.8084 0 0.16003-0.0055 0.27738-0.01622 0.35206-0.0973 1.0669-0.46488 1.8723-1.1027 2.4164-0.63785 0.5441-1.5351 0.81615-2.692 0.81615h-3.892c-0.08648 0-0.16216-0.032-0.22703-0.09602-0.06487-0.06401-0.09729-0.14936-0.09729-0.25605l0.71353-10.274c0-0.1707 0.05945-0.26138 0.17838-0.27205 0.01084-0.0107 0.04325-0.016 0.0973-0.016l6.3731-0.19203c0.0973 0 0.17838 0.032 0.24325 0.09602 0.06487 0.06401 0.0973 0.14403 0.0973 0.24004l-0.04865 1.6483c0 0.19203-0.10269 0.29872-0.30811 0.32006l-4.0542 0.30405zm-0.25946 4.6088c0.32433 0.04268 0.55136 0.06401 0.6811 0.06401 0.49731 0 0.87029-0.10136 1.119-0.30405 0.25946-0.21338 0.3892-0.50142 0.3892-0.86416 0-0.75747-0.43785-1.1362-1.3135-1.1362-0.25946 0-0.50271 0.02134-0.72975 0.06401z"/>
 </g>
</svg>
