<?xml version="1.0" encoding="UTF-8" standalone="no"?>
<svg
   xmlns:dc="http://purl.org/dc/elements/1.1/"
   xmlns:cc="http://creativecommons.org/ns#"
   xmlns:rdf="http://www.w3.org/1999/02/22-rdf-syntax-ns#"
   xmlns:svg="http://www.w3.org/2000/svg"
   xmlns="http://www.w3.org/2000/svg"
   style="enable-background:new"
   id="svg3783"
   version="1.1"
   viewBox="0 0 18 18"
   height="18"
   width="18">
  <metadata
     id="metadata3789">
    <rdf:RDF>
      <cc:Work
         rdf:about="">
        <dc:format>image/svg+xml</dc:format>
        <dc:type
           rdf:resource="http://purl.org/dc/dcmitype/StillImage" />
        <dc:title></dc:title>
      </cc:Work>
    </rdf:RDF>
  </metadata>
  <defs
     id="defs3787">
    <clipPath
       id="clipPath4920"
       clipPathUnits="userSpaceOnUse">
      <g
         id="use4922"
         style="fill:#000000;fill-rule:evenodd">
        <path
           style="display:inline;opacity:0.503;fill:#000000;fill-rule:evenodd"
           d="m 9.007152,16.052966 -3.5,-3.5 c -0.39,-0.39 -1.0100004,-0.39 -1.4000004,0 -0.39,0.39 -0.39,1.01 0,1.4 l 4.1900004,4.19 c 0.39,0.39 1.02,0.39 1.41,0 l 10.6,-10.5900005 c 0.39,-0.39 0.39,-1.01 0,-1.4 -0.39,-0.39 -1.01,-0.39 -1.4,0 z"
           id="path4924" />
      </g>
    </clipPath>
  </defs>
  <path
     style="opacity:0.87000002;fill:none"
     id="path3779"
     d="M 0,-6 H 24 V 18 H 0 Z" />
  <g
     transform="translate(0,-6)"
     style="display:inline;opacity:1"
     id="layer2">
    <path
       id="path3781"
       d="M 8.9991128,6.0000004 C 4.0220685,6.0000004 0,10.023192 0,14.999999 0,19.976807 4.0220685,24 8.9991128,24 13.976158,24 18,19.976807 18,14.999999 18,10.023192 13.976158,6.0000004 8.9991128,6.0000004 Z m 5.0067992,4.2132446 c 0.3025,-0.0015 0.606931,0.12034 0.837126,0.363598 l 0.106415,0.112454 c 0.460392,0.486517 0.460392,1.2715 0,1.758016 l -6.5870522,6.973969 c -0.460392,0.486518 -1.2049952,0.486518 -1.6653864,0 L 3.0487733,15.566014 c -0.4603914,-0.486517 -0.4603914,-1.2715 0,-1.758017 l 0.1064144,-0.112454 c 0.4603911,-0.486517 1.2049944,-0.486517 1.6653858,0 l 2.7153413,2.86943 5.6417382,-5.97501 c 0.224293,-0.249496 0.525758,-0.375159 0.828259,-0.376718 z"
       style="fill:#000000;fill-opacity:1;fill-rule:evenodd;stroke:none;stroke-width:0.89998668;paint-order:stroke fill markers" />
  </g>
</svg>
